<svg width="1728" height="1117" viewBox="0 0 1728 1117" fill="none" xmlns="http://www.w3.org/2000/svg">
<g clip-path="url(#clip0_28_28)">
<rect width="1728" height="1117" fill="white"/>
<rect x="-402" y="148" width="1447" height="909" rx="454.5" fill="url(#paint0_linear_28_28)"/>
<rect x="-402" y="148" width="1447" height="909" rx="454.5" fill="url(#paint1_linear_28_28)" fill-opacity="0.2"/>
<path d="M734 458H652V752H734V458Z" fill="white" stroke="#263238" stroke-linecap="round" stroke-linejoin="round"/>
<path d="M734.124 751.568H652.616V935.024H734.124V751.568Z" fill="#005351" stroke="#263238" stroke-linecap="round" stroke-linejoin="round"/>
<path d="M729.13 872.178L655.612 796.867V820.858L729.13 896.169V872.178Z" fill="#263238"/>
<path d="M787.104 931.566L768.759 912.774V931.566H787.104Z" fill="#263238"/>
<path d="M729.13 931.567V918.066L655.612 842.755V866.746L718.89 931.567H729.13Z" fill="#263238"/>
<path d="M729.13 826.291L659.01 754.461H655.612V774.97L729.13 850.281V826.291Z" fill="#263238"/>
<path d="M768.759 866.886V890.877L789.653 912.28V888.29L768.759 866.886Z" fill="#263238"/>
<path d="M697.514 931.567L655.612 888.643V912.621L674.095 931.567H697.514Z" fill="#263238"/>
<path d="M729.13 780.403L703.805 754.461H680.386L729.13 804.394V780.403Z" fill="#263238"/>
<path d="M768.759 820.999V844.989L789.653 866.393V842.402L768.759 820.999Z" fill="#263238"/>
<path d="M789.653 458.309H733.986V934.942H789.653V458.309Z" fill="white" stroke="#263238" stroke-linecap="round" stroke-linejoin="round"/>
<path d="M789.653 751.133H733.986V934.942H789.653V751.133Z" fill="#049996" stroke="#263238" stroke-linecap="round" stroke-linejoin="round"/>
<path d="M737.74 834.158V858.149L787.713 806.958V782.967L737.74 834.158Z" fill="#263238"/>
<path d="M737.74 925.922V934.942H752.366L787.713 898.733V874.742L737.74 925.922Z" fill="#263238"/>
<path d="M771.319 753.873L737.74 788.271V812.261L787.713 761.07V753.873H771.319Z" fill="#263238"/>
<path d="M737.74 880.046V904.025L787.713 852.845V828.855L737.74 880.046Z" fill="#263238"/>
<path d="M787.713 920.618L773.741 934.942H787.713V920.618Z" fill="#263238"/>
<path d="M370.667 498.916V458.309" stroke="#263238" stroke-linecap="round" stroke-linejoin="round"/>
<path d="M342.587 498.916V458.309" stroke="black" stroke-miterlimit="10"/>
<path d="M314.507 498.916V458.309" stroke="black" stroke-miterlimit="10"/>
<path d="M470.612 498.916V458.309" stroke="#263238" stroke-linecap="round" stroke-linejoin="round"/>
<path d="M442.532 498.916V458.309" stroke="black" stroke-miterlimit="10"/>
<path d="M414.452 498.916V458.309" stroke="black" stroke-miterlimit="10"/>
<path d="M570.568 498.916V458.309" stroke="#263238" stroke-linecap="round" stroke-linejoin="round"/>
<path d="M542.477 498.916V458.309" stroke="black" stroke-miterlimit="10"/>
<path d="M514.397 498.916V458.309" stroke="black" stroke-miterlimit="10"/>
<path d="M670.513 498.916V458.309" stroke="#263238" stroke-linecap="round" stroke-linejoin="round"/>
<path d="M642.422 498.916V458.309" stroke="black" stroke-miterlimit="10"/>
<path d="M614.342 498.916V458.309" stroke="black" stroke-miterlimit="10"/>
<path d="M690.603 499.857H607.511V515.074H690.603V499.857Z" fill="#263238" stroke="#263238" stroke-linecap="round" stroke-linejoin="round"/>
<path d="M690.603 505.078H607.511V515.074H690.603V505.078Z" fill="white" stroke="#263238" stroke-linecap="round" stroke-linejoin="round"/>
<path d="M690.603 505.078H633.192V515.074H690.603V505.078Z" fill="white" stroke="#263238" stroke-linecap="round" stroke-linejoin="round"/>
<path d="M586.95 499.857H503.858V515.074H586.95V499.857Z" fill="#263238" stroke="#263238" stroke-linecap="round" stroke-linejoin="round"/>
<path d="M586.95 505.078H503.858V515.074H586.95V505.078Z" fill="white" stroke="#263238" stroke-linecap="round" stroke-linejoin="round"/>
<path d="M586.95 505.078H529.539V515.074H586.95V505.078Z" fill="white" stroke="#263238" stroke-linecap="round" stroke-linejoin="round"/>
<path d="M483.309 499.857H400.217V515.074H483.309V499.857Z" fill="#263238" stroke="#263238" stroke-linecap="round" stroke-linejoin="round"/>
<path d="M483.309 505.078H400.217V515.074H483.309V505.078Z" fill="white" stroke="#263238" stroke-linecap="round" stroke-linejoin="round"/>
<path d="M483.309 505.078H425.897V515.074H483.309V505.078Z" fill="white" stroke="#263238" stroke-linecap="round" stroke-linejoin="round"/>
<path d="M379.656 499.857H296.564V515.074H379.656V499.857Z" fill="#263238" stroke="#263238" stroke-linecap="round" stroke-linejoin="round"/>
<path d="M379.656 505.078H296.564V515.074H379.656V505.078Z" fill="white" stroke="#263238" stroke-linecap="round" stroke-linejoin="round"/>
<path d="M379.656 505.078H322.245V515.074H379.656V505.078Z" fill="white" stroke="#263238" stroke-linecap="round" stroke-linejoin="round"/>
<path d="M689.513 482.84H294.681V489.614H689.513V482.84Z" fill="#263238" stroke="#263238" stroke-linecap="round" stroke-linejoin="round"/>
<path d="M662.19 876.342H652.122L651.973 876.565C651.112 876.42 650.24 876.345 649.367 876.342C637.095 876.342 627.142 889.454 627.142 905.636C627.142 921.817 637.095 934.942 649.367 934.942C650.24 934.932 651.111 934.858 651.973 934.718L652.122 934.942H662.19C674.462 934.942 684.416 921.817 684.416 905.636C684.416 889.454 674.428 876.342 662.19 876.342Z" fill="#263238" stroke="#263238" stroke-linecap="round" stroke-linejoin="round"/>
<path d="M455.952 876.342H445.884L445.735 876.565C444.873 876.42 444.002 876.345 443.129 876.342C430.857 876.342 420.904 889.454 420.904 905.636C420.904 921.817 430.857 934.942 443.129 934.942C444.002 934.932 444.873 934.858 445.735 934.718L445.884 934.942H455.952C468.224 934.942 478.177 921.817 478.177 905.636C478.177 889.454 468.224 876.342 455.952 876.342Z" fill="#263238" stroke="#263238" stroke-linecap="round" stroke-linejoin="round"/>
<path d="M758.002 877.2H753.169L748.841 846.118C748.585 844.288 747.692 842.613 746.328 841.401C744.964 840.19 743.219 839.522 741.414 839.521H714.332L670.364 791.717C668.006 789.152 665.159 787.11 662 785.716C658.84 784.322 655.436 783.607 651.996 783.614H535.52C533.006 783.613 530.518 784.133 528.205 785.144C525.893 786.155 523.804 787.634 522.065 789.494L321.854 876.071V912.68H621.976L697.308 912.127L753.169 908.376V908.117H757.761C758.249 908.117 758.716 907.919 759.06 907.566C759.405 907.213 759.598 906.735 759.598 906.236V878.835C759.598 878.401 759.43 877.985 759.131 877.679C758.832 877.372 758.426 877.2 758.002 877.2Z" fill="#B2B2B2" stroke="#263238" stroke-linecap="round" stroke-linejoin="round"/>
<path d="M672.729 907.012V912.257L697.308 912.08L753.169 908.329V908.07H757.761C758.103 908.069 758.437 907.969 758.725 907.781C759.014 907.594 759.245 907.327 759.392 907.012H672.729Z" fill="#263238" stroke="#263238" stroke-linecap="round" stroke-linejoin="round"/>
<path d="M697.308 912.08C697.769 912.031 698.195 911.805 698.501 911.446C698.806 911.088 698.967 910.625 698.953 910.15C698.938 909.675 698.749 909.223 698.422 908.885C698.096 908.547 697.657 908.348 697.193 908.329H668.941L564.473 783.673H535.52C533.006 783.672 530.518 784.192 528.205 785.203C525.893 786.213 523.804 787.693 522.065 789.553L321.854 876.13V912.68H621.976L697.308 912.08Z" fill="#263238" stroke="#263238" stroke-linecap="round" stroke-linejoin="round"/>
<path d="M368.566 876.342H358.498L351.897 886.267C348.269 892.043 346.34 898.767 346.34 905.636C346.34 912.504 348.269 919.228 351.897 925.004L358.498 934.942H368.566C380.85 934.942 390.803 921.817 390.803 905.636C390.803 889.454 380.85 876.342 368.566 876.342Z" fill="#263238" stroke="#263238" stroke-linecap="round" stroke-linejoin="round"/>
<path d="M355.755 934.93C368.029 934.93 377.98 921.814 377.98 905.636C377.98 889.457 368.029 876.342 355.755 876.342C343.48 876.342 333.529 889.457 333.529 905.636C333.529 921.814 343.48 934.93 355.755 934.93Z" fill="#636363" stroke="#263238" stroke-linecap="round" stroke-linejoin="round"/>
<path d="M355.755 929.003C365.55 929.003 373.491 918.541 373.491 905.636C373.491 892.731 365.55 882.269 355.755 882.269C345.959 882.269 338.018 892.731 338.018 905.636C338.018 918.541 345.959 929.003 355.755 929.003Z" fill="white" stroke="#263238" stroke-linecap="round" stroke-linejoin="round"/>
<path d="M359.509 905.624C359.509 908.352 357.821 910.563 355.755 910.563C353.688 910.563 352.012 908.352 352.012 905.624C352.012 902.896 353.688 900.685 355.755 900.685C357.821 900.685 359.509 902.907 359.509 905.624Z" fill="white" stroke="#263238" stroke-linecap="round" stroke-linejoin="round"/>
<path d="M592.92 876.342H582.841L576.24 886.267C572.612 892.043 570.683 898.767 570.683 905.636C570.683 912.504 572.612 919.228 576.24 925.004L582.841 934.942H592.92C605.192 934.942 615.145 921.817 615.145 905.636C615.145 889.454 605.192 876.342 592.92 876.342Z" fill="#263238" stroke="#263238" stroke-linecap="round" stroke-linejoin="round"/>
<path d="M580.097 934.93C592.372 934.93 602.322 921.814 602.322 905.636C602.322 889.457 592.372 876.342 580.097 876.342C567.822 876.342 557.872 889.457 557.872 905.636C557.872 921.814 567.822 934.93 580.097 934.93Z" fill="#636363" stroke="#263238" stroke-linecap="round" stroke-linejoin="round"/>
<path d="M580.097 929.003C589.892 929.003 597.833 918.541 597.833 905.636C597.833 892.731 589.892 882.269 580.097 882.269C570.301 882.269 562.36 892.731 562.36 905.636C562.36 918.541 570.301 929.003 580.097 929.003Z" fill="white" stroke="#263238" stroke-linecap="round" stroke-linejoin="round"/>
<path d="M583.851 905.624C583.851 908.352 582.175 910.563 580.097 910.563C578.019 910.563 576.354 908.352 576.354 905.624C576.354 902.896 578.03 900.685 580.097 900.685C582.163 900.685 583.851 902.907 583.851 905.624Z" fill="white" stroke="#263238" stroke-linecap="round" stroke-linejoin="round"/>
<path d="M670.364 791.717C669.997 791.329 669.606 790.964 669.216 790.6H578.409V836.558H711.577L670.364 791.717Z" fill="#263238" stroke="#263238" stroke-linecap="round" stroke-linejoin="round"/>
<path d="M680.799 877.2H675.507L670.249 839.568H636.67L592.702 791.764C590.34 789.203 587.493 787.164 584.334 785.771C581.176 784.377 577.773 783.66 574.334 783.661H467.363C464.849 783.66 462.361 784.18 460.049 785.191C457.736 786.202 455.648 787.681 453.909 789.541L385.557 836.24L322.325 864.194L312.429 877.812C309.994 881.159 308.678 885.221 308.675 889.395V912.68H328.627V904.954C328.627 886.055 342.036 870.744 358.579 870.744C373.319 870.744 382.48 882.986 384.776 899.615L386.578 912.68H553.234V904.954C553.234 886.055 560.799 870.744 581.13 870.744C599.257 870.744 605.743 882.986 608.567 899.615L610.691 912.127L675.507 908.376V908.117H680.799V877.2Z" fill="#B2B2B2" stroke="#263238" stroke-linecap="round" stroke-linejoin="round"/>
<path d="M454.483 796.374L395.797 836.24H505.477V791.14H466.64C464.375 791.138 462.133 791.6 460.045 792.499C457.957 793.397 456.066 794.715 454.483 796.374Z" fill="#263238" stroke="#263238" stroke-linecap="round" stroke-linejoin="round"/>
<path d="M441.74 836.24L476.524 791.094H466.64C464.375 791.091 462.133 791.553 460.045 792.452C457.957 793.35 456.066 794.668 454.483 796.327L433.945 810.368L413.958 836.24H441.74Z" fill="white" stroke="#263238" stroke-linecap="round" stroke-linejoin="round"/>
<path d="M505.477 836.287V803.865L480.496 836.287H505.477Z" fill="white" stroke="#263238" stroke-linecap="round" stroke-linejoin="round"/>
<path d="M589.04 798.49L613.986 824.633C614.819 825.5 615.41 826.58 615.696 827.761C615.944 828.773 615.964 829.829 615.753 830.849C615.542 831.87 615.107 832.828 614.481 833.65C613.854 834.472 613.053 835.137 612.137 835.594C611.222 836.051 610.217 836.288 609.199 836.287H512.824V791.14H571.98C575.159 791.14 578.305 791.79 581.234 793.052C584.164 794.314 586.818 796.163 589.04 798.49Z" fill="#263238" stroke="#263238" stroke-linecap="round" stroke-linejoin="round"/>
<path d="M565.666 791.14H555.977L521.193 836.287H530.882L565.666 791.14Z" fill="white" stroke="#263238" stroke-linecap="round" stroke-linejoin="round"/>
<path d="M512.824 794.327V830.395L543.062 791.14H515.281L512.824 794.327Z" fill="white" stroke="#263238" stroke-linecap="round" stroke-linejoin="round"/>
<path d="M670.249 839.521H741.425C743.231 839.522 744.976 840.189 746.34 841.401C747.704 842.613 748.596 844.288 748.853 846.118L753.181 877.2H675.507L670.249 839.521Z" fill="#B2B2B2" stroke="#263238" stroke-linecap="round" stroke-linejoin="round"/>
<path d="M737.809 856.514H704.058V870.709H737.809V856.514Z" fill="white" stroke="#263238" stroke-linecap="round" stroke-linejoin="round"/>
<path d="M756.877 883.01H612.264" stroke="#263238" stroke-width="2" stroke-linecap="round" stroke-linejoin="round"/>
<path d="M547.643 883.01H387.394" stroke="#263238" stroke-width="2" stroke-linecap="round" stroke-linejoin="round"/>
<path d="M334.184 883.01H315.839" stroke="#263238" stroke-width="2" stroke-linecap="round" stroke-linejoin="round"/>
<path d="M698.226 856.738H666.392C664.916 856.737 663.468 857.158 662.213 857.954C660.958 858.749 659.944 859.888 659.286 861.242L653.948 872.167C653.713 872.666 653.606 873.217 653.636 873.77C653.665 874.323 653.831 874.859 654.118 875.329C654.404 875.798 654.802 876.186 655.274 876.456C655.746 876.725 656.277 876.868 656.818 876.871H698.272L698.226 856.738Z" fill="#B2B2B2" stroke="#263238" stroke-linecap="round" stroke-linejoin="round"/>
<path d="M698.226 856.738H672.534L675.346 876.918H698.226V856.738Z" fill="#263238" stroke="#263238" stroke-linecap="round" stroke-linejoin="round"/>
<path d="M750.196 856.738H742.413L742.321 876.918H753.009L750.196 856.738Z" fill="#263238" stroke="#263238" stroke-linecap="round" stroke-linejoin="round"/>
<path d="M402.949 826.879H387.072C385.804 826.879 384.776 827.932 384.776 829.231V842.273C384.776 843.572 385.804 844.625 387.072 844.625H402.949C404.217 844.625 405.245 843.572 405.245 842.273V829.231C405.245 827.932 404.217 826.879 402.949 826.879Z" fill="#263238" stroke="#263238" stroke-linecap="round" stroke-linejoin="round"/>
<path d="M502.848 844.625H483.171V852.692H502.848V844.625Z" fill="#263238" stroke="#263238" stroke-linecap="round" stroke-linejoin="round"/>
<path d="M507.578 841.403V902.684" stroke="#263238" stroke-linecap="round" stroke-linejoin="round"/>
<path d="M374.536 868.815C374.536 868.815 388.955 877.153 390.803 905.636H543.786" stroke="#263238" stroke-linecap="round" stroke-linejoin="round"/>
<path d="M616.201 880.928C616.201 880.928 608.671 860.76 583.438 860.76C565.85 860.76 557.435 870.227 553.234 877.694" stroke="#263238" stroke-linecap="round" stroke-linejoin="round"/>
<path d="M434.324 876.342H424.256L424.107 876.565C423.249 876.419 422.381 876.344 421.512 876.342C409.229 876.342 399.287 889.454 399.287 905.636C399.287 921.817 409.229 934.942 421.512 934.942C422.381 934.933 423.248 934.858 424.107 934.718L424.256 934.942H434.324C446.596 934.942 456.549 921.817 456.549 905.636C456.549 889.454 446.596 876.342 434.324 876.342Z" fill="#263238" stroke="#263238" stroke-linecap="round" stroke-linejoin="round"/>
<path d="M228.086 876.342H218.018L217.868 876.565C217.011 876.419 216.143 876.344 215.274 876.342C202.99 876.342 193.049 889.454 193.049 905.636C193.049 921.817 202.99 934.942 215.274 934.942C216.143 934.933 217.01 934.858 217.868 934.718L218.018 934.942H228.086C240.358 934.942 250.311 921.817 250.311 905.636C250.311 889.454 240.358 876.342 228.086 876.342Z" fill="#263238" stroke="#263238" stroke-linecap="round" stroke-linejoin="round"/>
<path d="M530.136 877.2H525.303L520.975 846.118C520.721 844.289 519.831 842.614 518.468 841.402C517.106 840.19 515.363 839.522 513.559 839.521H486.477L442.532 791.717C440.17 789.156 437.323 787.117 434.164 785.724C431.006 784.33 427.603 783.612 424.164 783.614H307.608C305.093 783.612 302.605 784.131 300.292 785.142C297.98 786.153 295.891 787.633 294.153 789.494L93.9418 876.071V912.68H394.109L469.453 912.127L525.303 908.376V908.117H529.895C530.38 908.114 530.844 907.914 531.186 907.562C531.528 907.209 531.72 906.733 531.72 906.236V878.835C531.72 878.403 531.554 877.989 531.257 877.683C530.96 877.377 530.557 877.203 530.136 877.2Z" fill="white" stroke="#263238" stroke-linecap="round" stroke-linejoin="round"/>
<path d="M444.828 907.012V912.257L469.418 912.08L525.268 908.329V908.07H529.86C530.2 908.067 530.532 907.965 530.818 907.778C531.104 907.591 531.333 907.326 531.479 907.012H444.828Z" fill="#263238" stroke="#263238" stroke-linecap="round" stroke-linejoin="round"/>
<path d="M469.453 912.08C469.915 912.03 470.341 911.802 470.645 911.443C470.95 911.084 471.111 910.62 471.095 910.144C471.079 909.669 470.887 909.217 470.559 908.88C470.231 908.543 469.791 908.346 469.326 908.329H441.086L336.617 783.673H307.608C305.093 783.67 302.605 784.19 300.292 785.201C297.98 786.212 295.891 787.692 294.153 789.553L93.9418 876.13V912.68H394.109L469.453 912.08Z" fill="#263238" stroke="#263238" stroke-linecap="round" stroke-linejoin="round"/>
<path d="M140.711 876.342H130.643L124.042 886.267C120.415 892.043 118.485 898.767 118.485 905.636C118.485 912.504 120.415 919.228 124.042 925.004L130.643 934.942H140.711C152.983 934.942 162.937 921.817 162.937 905.636C162.937 889.454 152.983 876.342 140.711 876.342Z" fill="#263238" stroke="#263238" stroke-linecap="round" stroke-linejoin="round"/>
<path d="M127.9 934.93C140.174 934.93 150.125 921.814 150.125 905.636C150.125 889.457 140.174 876.342 127.9 876.342C115.625 876.342 105.674 889.457 105.674 905.636C105.674 921.814 115.625 934.93 127.9 934.93Z" fill="#636363" stroke="#263238" stroke-linecap="round" stroke-linejoin="round"/>
<path d="M127.9 929.003C137.695 929.003 145.636 918.541 145.636 905.636C145.636 892.731 137.695 882.269 127.9 882.269C118.104 882.269 110.163 892.731 110.163 905.636C110.163 918.541 118.104 929.003 127.9 929.003Z" fill="white" stroke="#263238" stroke-linecap="round" stroke-linejoin="round"/>
<path d="M131.642 905.624C131.642 908.352 129.966 910.563 127.9 910.563C125.833 910.563 124.146 908.352 124.146 905.624C124.146 902.896 125.822 900.685 127.9 900.685C129.978 900.685 131.642 902.907 131.642 905.624Z" fill="white" stroke="#263238" stroke-linecap="round" stroke-linejoin="round"/>
<path d="M365.054 876.342H354.986L348.396 886.267C344.768 892.043 342.839 898.767 342.839 905.636C342.839 912.504 344.768 919.228 348.396 925.004L354.997 934.942H365.065C377.337 934.942 387.29 921.817 387.29 905.636C387.29 889.454 377.326 876.342 365.054 876.342Z" fill="#263238" stroke="#263238" stroke-linecap="round" stroke-linejoin="round"/>
<path d="M374.467 905.624C374.467 921.806 364.514 934.93 352.242 934.93C339.97 934.93 330.028 921.818 330.028 905.624C330.028 889.43 339.97 876.33 352.253 876.33C364.537 876.33 374.467 889.454 374.467 905.624Z" fill="#636363" stroke="#263238" stroke-linecap="round" stroke-linejoin="round"/>
<path d="M369.967 905.624C369.967 918.56 362.034 929.003 352.242 929.003C342.449 929.003 334.505 918.56 334.505 905.624C334.505 892.688 342.449 882.257 352.242 882.257C362.034 882.257 369.967 892.688 369.967 905.624Z" fill="white" stroke="#263238" stroke-linecap="round" stroke-linejoin="round"/>
<path d="M355.984 905.624C355.984 908.352 354.308 910.563 352.242 910.563C350.175 910.563 348.488 908.352 348.488 905.624C348.488 902.896 350.175 900.685 352.242 900.685C354.308 900.685 355.984 902.907 355.984 905.624Z" fill="white" stroke="#263238" stroke-linecap="round" stroke-linejoin="round"/>
<path d="M442.532 791.717C442.165 791.328 441.774 790.964 441.384 790.599H350.577V836.557H483.745L442.532 791.717Z" fill="#263238" stroke="#263238" stroke-linecap="round" stroke-linejoin="round"/>
<path d="M452.933 877.2H447.641L442.394 839.568H408.804L364.835 791.764C362.477 789.199 359.63 787.157 356.471 785.763C353.312 784.369 349.907 783.654 346.467 783.661H239.474C236.958 783.66 234.468 784.18 232.154 785.191C229.84 786.201 227.749 787.681 226.008 789.541L157.702 836.24L94.4699 864.194L84.5742 877.812C82.1391 881.159 80.8226 885.221 80.8202 889.395V912.68H100.761V904.954C100.761 886.055 114.17 870.744 130.712 870.744C145.453 870.744 154.614 882.986 156.91 899.615L158.723 912.68H325.367V904.954C325.367 886.055 332.932 870.744 353.275 870.744C371.402 870.744 377.877 882.986 380.701 899.615L382.836 912.08L447.641 908.329V908.07H452.933V877.2Z" fill="white" stroke="#263238" stroke-linecap="round" stroke-linejoin="round"/>
<path d="M226.616 796.374L167.93 836.24H277.61V791.14H238.773C236.509 791.14 234.267 791.603 232.18 792.501C230.092 793.4 228.201 794.716 226.616 796.374Z" fill="#263238" stroke="#263238" stroke-linecap="round" stroke-linejoin="round"/>
<path d="M213.873 836.24L248.658 791.093H238.774C236.509 791.093 234.267 791.556 232.18 792.454C230.092 793.353 228.201 794.669 226.616 796.326L206.044 810.368L186.092 836.24H213.873Z" fill="white" stroke="#263238" stroke-linecap="round" stroke-linejoin="round"/>
<path d="M277.61 836.287V803.865L252.63 836.287H277.61Z" fill="white" stroke="#263238" stroke-linecap="round" stroke-linejoin="round"/>
<path d="M361.185 798.49L386.131 824.633C386.96 825.503 387.55 826.582 387.841 827.761C388.087 828.773 388.105 829.83 387.892 830.85C387.68 831.871 387.244 832.828 386.616 833.65C385.989 834.472 385.187 835.137 384.271 835.593C383.356 836.05 382.351 836.288 381.332 836.287H284.958V791.14H344.114C347.294 791.139 350.442 791.788 353.374 793.05C356.305 794.313 358.961 796.162 361.185 798.49Z" fill="#263238" stroke="#263238" stroke-linecap="round" stroke-linejoin="round"/>
<path d="M337.811 791.14H328.122L293.338 836.287H303.027L337.811 791.14Z" fill="white" stroke="#263238" stroke-linecap="round" stroke-linejoin="round"/>
<path d="M284.958 794.327V830.395L315.196 791.14H287.414L284.958 794.327Z" fill="white" stroke="#263238" stroke-linecap="round" stroke-linejoin="round"/>
<path d="M442.394 839.521H513.57C515.375 839.522 517.118 840.19 518.48 841.402C519.842 842.614 520.732 844.289 520.986 846.118L525.314 877.2H447.641L442.394 839.521Z" fill="white" stroke="#263238" stroke-linecap="round" stroke-linejoin="round"/>
<path d="M509.943 856.514H476.191V870.708H509.943V856.514Z" fill="white" stroke="#263238" stroke-linecap="round" stroke-linejoin="round"/>
<path d="M529.022 883.01H384.409" stroke="#263238" stroke-width="2" stroke-linecap="round" stroke-linejoin="round"/>
<path d="M319.788 883.01H159.527" stroke="#263238" stroke-width="2" stroke-linecap="round" stroke-linejoin="round"/>
<path d="M106.329 883.01H87.9838" stroke="#263238" stroke-width="2" stroke-linecap="round" stroke-linejoin="round"/>
<path d="M470.371 856.738H438.48C437.003 856.737 435.556 857.158 434.301 857.954C433.045 858.749 432.032 859.888 431.373 861.242L426.047 872.167C425.812 872.666 425.705 873.217 425.735 873.77C425.764 874.323 425.93 874.859 426.217 875.329C426.503 875.798 426.901 876.186 427.373 876.456C427.845 876.725 428.376 876.868 428.917 876.871H470.371V856.738Z" fill="#B2B2B2" stroke="#263238" stroke-linecap="round" stroke-linejoin="round"/>
<path d="M470.371 856.738H444.667L447.48 876.918H470.371V856.738Z" fill="#263238" stroke="#263238" stroke-linecap="round" stroke-linejoin="round"/>
<path d="M522.341 856.738H514.558L514.454 876.918H525.142L522.341 856.738Z" fill="#263238" stroke="#263238" stroke-linecap="round" stroke-linejoin="round"/>
<path d="M175.083 826.879H159.206C157.938 826.879 156.91 827.932 156.91 829.231V842.273C156.91 843.572 157.938 844.625 159.206 844.625H175.083C176.351 844.625 177.379 843.572 177.379 842.273V829.231C177.379 827.932 176.351 826.879 175.083 826.879Z" fill="#263238" stroke="#263238" stroke-linecap="round" stroke-linejoin="round"/>
<path d="M274.981 844.625H255.305V852.692H274.981V844.625Z" fill="#263238" stroke="#263238" stroke-linecap="round" stroke-linejoin="round"/>
<path d="M279.711 841.403V902.684" stroke="#263238" stroke-linecap="round" stroke-linejoin="round"/>
<path d="M146.681 868.815C146.681 868.815 161.088 877.153 162.937 905.636H315.919" stroke="#263238" stroke-linecap="round" stroke-linejoin="round"/>
<path d="M388.346 880.928C388.346 880.928 380.804 860.76 355.571 860.76C337.984 860.76 329.58 870.226 325.367 877.694" stroke="#263238" stroke-linecap="round" stroke-linejoin="round"/>
<path d="M268 458H186V752H268V458Z" fill="white" stroke="#263238" stroke-linecap="round" stroke-linejoin="round"/>
<path d="M324 751H186V935H324V751Z" fill="#005351" stroke="#263238" stroke-linecap="round" stroke-linejoin="round"/>
<path d="M263.26 872.178L189.742 796.867V820.858L263.26 896.169V872.178Z" fill="#263238"/>
<path d="M321.223 931.566L302.889 912.774V931.566H321.223Z" fill="#263238"/>
<path d="M263.26 931.567V918.066L189.742 842.755V866.746L253.02 931.567H263.26Z" fill="#263238"/>
<path d="M263.26 826.291L193.141 754.461H189.742V774.97L263.26 850.281V826.291Z" fill="#263238"/>
<path d="M302.889 866.886V890.877L323.783 912.28V888.29L302.889 866.886Z" fill="#263238"/>
<path d="M231.644 931.567L189.742 888.643V912.621L208.225 931.567H231.644Z" fill="#263238"/>
<path d="M263.26 780.403L237.935 754.461H214.516L263.26 804.394V780.403Z" fill="#263238"/>
<path d="M302.889 820.999V844.989L323.783 866.393V842.402L302.889 820.999Z" fill="#263238"/>
<path d="M323.771 458.309H268.105V934.942H323.771V458.309Z" fill="white" stroke="#263238" stroke-linecap="round" stroke-linejoin="round"/>
<path d="M323.771 751.133H268.105V934.942H323.771V751.133Z" fill="#049996" stroke="#263238" stroke-linecap="round" stroke-linejoin="round"/>
<path d="M271.87 834.158V858.149L321.843 806.958V782.967L271.87 834.158Z" fill="#263238"/>
<path d="M271.87 925.922V934.942H286.496L321.843 898.733V874.742L271.87 925.922Z" fill="#263238"/>
<path d="M305.449 753.873L271.87 788.271V812.261L321.843 761.07V753.873H305.449Z" fill="#263238"/>
<path d="M271.87 880.046V904.025L321.843 852.845V828.855L271.87 880.046Z" fill="#263238"/>
<path d="M321.843 920.618L307.872 934.942H321.843V920.618Z" fill="#263238"/>
<path d="M130.643 501.703V461.096" stroke="#263238" stroke-linecap="round" stroke-linejoin="round"/>
<path d="M102.563 501.703V461.096" stroke="black" stroke-miterlimit="10"/>
<path d="M74.4718 501.703V461.096" stroke="black" stroke-miterlimit="10"/>
<path d="M230.588 501.703V461.096" stroke="#263238" stroke-linecap="round" stroke-linejoin="round"/>
<path d="M202.508 501.703V461.096" stroke="black" stroke-miterlimit="10"/>
<path d="M174.417 501.703V461.096" stroke="black" stroke-miterlimit="10"/>
<path d="M250.678 502.644H167.586V517.861H250.678V502.644Z" fill="#263238" stroke="#263238" stroke-linecap="round" stroke-linejoin="round"/>
<path d="M250.678 507.865H167.586V517.861H250.678V507.865Z" fill="white" stroke="#263238" stroke-linecap="round" stroke-linejoin="round"/>
<path d="M250.678 507.865H193.267V517.861H250.678V507.865Z" fill="white" stroke="#263238" stroke-linecap="round" stroke-linejoin="round"/>
<path d="M147.037 502.644H63.9446V517.861H147.037V502.644Z" fill="#263238" stroke="#263238" stroke-linecap="round" stroke-linejoin="round"/>
<path d="M147.037 507.865H63.9446V517.861H147.037V507.865Z" fill="white" stroke="#263238" stroke-linecap="round" stroke-linejoin="round"/>
<path d="M147.037 507.865H89.6254V517.861H147.037V507.865Z" fill="white" stroke="#263238" stroke-linecap="round" stroke-linejoin="round"/>
<path d="M249.588 485.627H26.9561V492.401H249.588V485.627Z" fill="#263238" stroke="#263238" stroke-linecap="round" stroke-linejoin="round"/>
<path d="M297.884 701.964C294.302 701.964 291.558 701.294 289.653 699.953C287.749 698.598 286.371 696.6 285.761 694.308C285.019 691.54 284.667 688.677 284.716 685.806H294.153C294.13 687.413 294.246 689.018 294.497 690.604C294.631 691.685 295.07 692.703 295.76 693.532C296.13 693.876 296.567 694.134 297.042 694.29C297.517 694.446 298.02 694.497 298.515 694.438C299.042 694.457 299.564 694.336 300.03 694.087C300.497 693.837 300.893 693.468 301.179 693.015C301.806 691.815 302.152 690.483 302.189 689.122C302.315 687.429 302.384 685.441 302.384 683.148C302.4 681.5 302.293 679.852 302.063 678.221C301.934 677.009 301.512 675.848 300.834 674.846C300.488 674.434 300.052 674.113 299.561 673.908C299.07 673.704 298.538 673.622 298.01 673.67C297.486 673.647 296.964 673.741 296.479 673.944C295.994 674.147 295.557 674.454 295.198 674.846C294.366 675.857 293.808 677.073 293.579 678.374H285.256L285.956 648.539H309.513V657.159H294.004L293.441 668.778C294.135 667.994 295.018 667.41 296.001 667.084C297.25 666.604 298.562 666.319 299.893 666.237C302.214 665.899 304.575 666.456 306.517 667.801C308.368 669.25 309.729 671.257 310.409 673.54C311.315 676.531 311.741 679.653 311.671 682.784C311.682 685.356 311.513 687.927 311.166 690.475C310.897 692.615 310.231 694.683 309.203 696.566C308.221 698.285 306.768 699.671 305.025 700.553C302.786 701.594 300.34 702.078 297.884 701.964Z" fill="#263238"/>
<path d="M315.724 578.743H274.993C272.85 578.743 271.113 580.523 271.113 582.718V624.442C271.113 626.638 272.85 628.417 274.993 628.417H315.724C317.867 628.417 319.604 626.638 319.604 624.442V582.718C319.604 580.523 317.867 578.743 315.724 578.743Z" fill="#263238" stroke="#263238" stroke-linecap="round" stroke-linejoin="round"/>
<path d="M285.256 624.254V582.154H298.297C300.4 582.065 302.486 582.561 304.336 583.588C305.885 584.551 307.092 585.998 307.78 587.716C308.598 589.795 308.989 592.025 308.928 594.266C309.052 596.714 308.532 599.15 307.424 601.322C306.5 602.961 305.064 604.232 303.348 604.933C301.456 605.678 299.441 606.041 297.413 606.003H293.602V624.243L285.256 624.254ZM293.625 599.982H296.564C297.54 600.038 298.514 599.831 299.388 599.382C299.723 599.173 300.014 598.898 300.245 598.573C300.475 598.248 300.641 597.88 300.731 597.489C300.99 596.4 301.11 595.281 301.087 594.16C301.105 593.079 301.012 592 300.811 590.938C300.652 590.129 300.206 589.409 299.56 588.916C298.643 588.358 297.581 588.103 296.518 588.186H293.625V599.982Z" fill="#049996"/>
<path d="M-0.217163 934.942H820.649" stroke="#263238" stroke-linecap="round" stroke-linejoin="round"/>
<path d="M491.997 645.27C491.997 612.945 451.307 592.471 409.809 608.669C400.419 612.329 392.738 618.472 387.954 626.145C377.516 643.017 382.129 662.285 391.59 678.288L423.904 746.612C424.924 748.789 426.708 750.659 429.021 751.977C431.335 753.295 434.071 754 436.872 754C439.673 754 442.409 753.295 444.723 751.977C447.036 750.659 448.82 748.789 449.84 746.612L481.495 677.933C492.465 656.998 491.997 645.27 491.997 645.27ZM453.093 673.48C425.201 687.017 396.926 662.001 412.211 637.304C414.225 634.048 417.298 631.33 421.076 629.462C448.99 615.925 477.265 640.941 461.958 665.638C459.952 668.9 456.878 671.619 453.093 673.48Z" fill="white"/>
<path d="M407.7 314L388 244H401.3L415.3 293.7L430.9 244H439.8L456 292.4L469.4 244H482.7L462.2 314H450.9L435.3 267.3L419.8 314H407.7ZM509.283 315C503.249 315 498.216 313.8 494.183 311.4C490.183 308.967 487.183 305.767 485.183 301.8C483.183 297.8 482.183 293.433 482.183 288.7C482.183 284.133 483.116 279.917 484.983 276.05C486.883 272.183 489.649 269.083 493.283 266.75C496.916 264.383 501.349 263.2 506.583 263.2C511.383 263.2 515.383 264.183 518.583 266.15C521.783 268.117 524.183 270.75 525.783 274.05C527.383 277.317 528.183 280.933 528.183 284.9C528.183 286 528.116 287.117 527.983 288.25C527.849 289.35 527.649 290.5 527.383 291.7H495.083C495.549 294.8 496.516 297.317 497.983 299.25C499.483 301.15 501.299 302.55 503.433 303.45C505.599 304.35 507.916 304.8 510.383 304.8C513.283 304.8 515.983 304.433 518.483 303.7C520.983 302.933 523.283 301.933 525.383 300.7L525.983 311.2C524.083 312.2 521.716 313.083 518.883 313.85C516.049 314.617 512.849 315 509.283 315ZM495.383 283.3H515.583C515.583 281.8 515.299 280.3 514.733 278.8C514.166 277.267 513.216 275.983 511.883 274.95C510.583 273.917 508.816 273.4 506.583 273.4C503.383 273.4 500.866 274.333 499.033 276.2C497.199 278.067 495.983 280.433 495.383 283.3ZM549.448 315C546.481 315 544.048 314.417 542.148 313.25C540.281 312.05 538.898 310.467 537.998 308.5C537.098 306.5 536.648 304.3 536.648 301.9V239H549.048V296.8C549.048 299.467 549.198 301.367 549.498 302.5C549.831 303.6 550.431 304.267 551.298 304.5C552.164 304.7 553.414 304.8 555.048 304.8L553.948 315H549.448ZM585.629 315C579.896 315 575.079 313.833 571.179 311.5C567.312 309.133 564.379 306 562.379 302.1C560.412 298.167 559.429 293.833 559.429 289.1C559.429 284.333 560.412 279.983 562.379 276.05C564.346 272.083 567.296 268.917 571.229 266.55C575.162 264.183 580.096 263 586.029 263C588.829 263 591.362 263.317 593.629 263.95C595.896 264.55 597.829 265.3 599.429 266.2L598.429 276.2C596.896 275.4 595.162 274.733 593.229 274.2C591.329 273.667 589.329 273.4 587.229 273.4C582.429 273.4 578.712 274.85 576.079 277.75C573.446 280.65 572.129 284.433 572.129 289.1C572.129 293.533 573.479 297.267 576.179 300.3C578.879 303.3 582.529 304.8 587.129 304.8C589.096 304.8 591.029 304.517 592.929 303.95C594.862 303.35 596.729 302.533 598.529 301.5L599.629 312C597.896 312.9 595.796 313.617 593.329 314.15C590.896 314.717 588.329 315 585.629 315ZM630.246 315C624.813 315 620.179 313.817 616.346 311.45C612.513 309.083 609.579 305.933 607.546 302C605.546 298.067 604.546 293.767 604.546 289.1C604.546 284.4 605.546 280.067 607.546 276.1C609.579 272.133 612.513 268.967 616.346 266.6C620.179 264.2 624.813 263 630.246 263C635.679 263 640.313 264.2 644.146 266.6C647.979 268.967 650.896 272.133 652.896 276.1C654.929 280.067 655.946 284.4 655.946 289.1C655.946 293.767 654.929 298.067 652.896 302C650.896 305.933 647.979 309.083 644.146 311.45C640.313 313.817 635.679 315 630.246 315ZM630.246 304.8C634.413 304.8 637.613 303.35 639.846 300.45C642.113 297.517 643.246 293.733 643.246 289.1C643.246 284.4 642.113 280.583 639.846 277.65C637.613 274.683 634.413 273.2 630.246 273.2C626.113 273.2 622.913 274.683 620.646 277.65C618.379 280.583 617.246 284.4 617.246 289.1C617.246 293.733 618.379 297.517 620.646 300.45C622.913 303.35 626.113 304.8 630.246 304.8ZM664.577 314V264H675.177L675.977 271.3L674.177 269.1C676.077 267.6 678.344 266.25 680.977 265.05C683.644 263.817 686.744 263.2 690.277 263.2C692.944 263.2 695.294 263.6 697.327 264.4C699.394 265.167 701.161 266.283 702.627 267.75C704.094 269.183 705.277 270.9 706.177 272.9L703.177 272.2C704.777 269.333 707.111 267.117 710.177 265.55C713.277 263.983 716.777 263.2 720.677 263.2C725.277 263.2 729.027 264.15 731.927 266.05C734.827 267.95 736.961 270.633 738.327 274.1C739.694 277.533 740.377 281.567 740.377 286.2V314H727.977V287.1C727.977 282.433 727.244 278.983 725.777 276.75C724.344 274.517 721.944 273.4 718.577 273.4C716.911 273.4 715.444 273.7 714.177 274.3C712.944 274.867 711.911 275.717 711.077 276.85C710.277 277.95 709.677 279.3 709.277 280.9C708.877 282.467 708.677 284.233 708.677 286.2V314H696.277V287.1C696.277 284 695.944 281.433 695.277 279.4C694.644 277.367 693.611 275.867 692.177 274.9C690.777 273.9 688.944 273.4 686.677 273.4C683.777 273.4 681.394 274.083 679.527 275.45C677.694 276.783 676.077 278.6 674.677 280.9L676.977 274.2V314H664.577ZM775.591 315C769.558 315 764.525 313.8 760.491 311.4C756.491 308.967 753.491 305.767 751.491 301.8C749.491 297.8 748.491 293.433 748.491 288.7C748.491 284.133 749.425 279.917 751.291 276.05C753.191 272.183 755.958 269.083 759.591 266.75C763.225 264.383 767.658 263.2 772.891 263.2C777.691 263.2 781.691 264.183 784.891 266.15C788.091 268.117 790.491 270.75 792.091 274.05C793.691 277.317 794.491 280.933 794.491 284.9C794.491 286 794.425 287.117 794.291 288.25C794.158 289.35 793.958 290.5 793.691 291.7H761.391C761.858 294.8 762.825 297.317 764.291 299.25C765.791 301.15 767.608 302.55 769.741 303.45C771.908 304.35 774.225 304.8 776.691 304.8C779.591 304.8 782.291 304.433 784.791 303.7C787.291 302.933 789.591 301.933 791.691 300.7L792.291 311.2C790.391 312.2 788.025 313.083 785.191 313.85C782.358 314.617 779.158 315 775.591 315ZM761.691 283.3H781.891C781.891 281.8 781.608 280.3 781.041 278.8C780.475 277.267 779.525 275.983 778.191 274.95C776.891 273.917 775.125 273.4 772.891 273.4C769.691 273.4 767.175 274.333 765.341 276.2C763.508 278.067 762.291 280.433 761.691 283.3ZM841.717 315C838.584 315 836.034 314.367 834.067 313.1C832.101 311.8 830.651 310.15 829.717 308.15C828.784 306.15 828.317 304.067 828.317 301.9V274.2H821.217L822.317 264H828.317V253L840.717 251.7V264H851.717V274.2H840.717V296.8C840.717 299.333 840.867 301.167 841.167 302.3C841.467 303.4 842.151 304.1 843.217 304.4C844.284 304.667 845.984 304.8 848.317 304.8H851.717L850.617 315H841.717ZM882.492 315C877.059 315 872.426 313.817 868.592 311.45C864.759 309.083 861.826 305.933 859.792 302C857.792 298.067 856.792 293.767 856.792 289.1C856.792 284.4 857.792 280.067 859.792 276.1C861.826 272.133 864.759 268.967 868.592 266.6C872.426 264.2 877.059 263 882.492 263C887.926 263 892.559 264.2 896.392 266.6C900.226 268.967 903.142 272.133 905.142 276.1C907.176 280.067 908.192 284.4 908.192 289.1C908.192 293.767 907.176 298.067 905.142 302C903.142 305.933 900.226 309.083 896.392 311.45C892.559 313.817 887.926 315 882.492 315ZM882.492 304.8C886.659 304.8 889.859 303.35 892.092 300.45C894.359 297.517 895.492 293.733 895.492 289.1C895.492 284.4 894.359 280.583 892.092 277.65C889.859 274.683 886.659 273.2 882.492 273.2C878.359 273.2 875.159 274.683 872.892 277.65C870.626 280.583 869.492 284.4 869.492 289.1C869.492 293.733 870.626 297.517 872.892 300.45C875.159 303.35 878.359 304.8 882.492 304.8ZM961.484 315.4C958.651 315.4 955.734 315.117 952.734 314.55C949.734 314.017 946.951 313.367 944.384 312.6C941.818 311.8 939.784 311.033 938.284 310.3L939.784 296.7C942.118 297.833 944.551 298.883 947.084 299.85C949.618 300.817 952.218 301.6 954.884 302.2C957.551 302.8 960.251 303.1 962.984 303.1C966.384 303.1 969.118 302.433 971.184 301.1C973.251 299.767 974.284 297.733 974.284 295C974.284 292.9 973.701 291.217 972.534 289.95C971.368 288.65 969.584 287.5 967.184 286.5C964.784 285.467 961.718 284.3 957.984 283C954.251 281.7 950.901 280.233 947.934 278.6C944.968 276.933 942.618 274.833 940.884 272.3C939.151 269.767 938.284 266.533 938.284 262.6C938.284 258.733 939.234 255.3 941.134 252.3C943.034 249.267 945.868 246.9 949.634 245.2C953.434 243.467 958.151 242.6 963.784 242.6C968.051 242.6 972.118 243.083 975.984 244.05C979.851 244.983 983.151 246 985.884 247.1L984.584 260.2C980.651 258.433 976.951 257.1 973.484 256.2C970.051 255.267 966.551 254.8 962.984 254.8C959.251 254.8 956.368 255.417 954.334 256.65C952.301 257.883 951.284 259.733 951.284 262.2C951.284 264.167 951.851 265.75 952.984 266.95C954.118 268.15 955.734 269.183 957.834 270.05C959.934 270.883 962.451 271.767 965.384 272.7C970.451 274.3 974.701 276.067 978.134 278C981.601 279.9 984.201 282.217 985.934 284.95C987.701 287.65 988.584 291 988.584 295C988.584 297 988.268 299.183 987.634 301.55C987.001 303.883 985.751 306.1 983.884 308.2C982.018 310.3 979.284 312.033 975.684 313.4C972.118 314.733 967.384 315.4 961.484 315.4ZM996.706 314V264H1007.31L1008.11 271.3L1006.31 269.1C1008.21 267.6 1010.47 266.25 1013.11 265.05C1015.77 263.817 1018.87 263.2 1022.41 263.2C1025.07 263.2 1027.42 263.6 1029.46 264.4C1031.52 265.167 1033.29 266.283 1034.76 267.75C1036.22 269.183 1037.41 270.9 1038.31 272.9L1035.31 272.2C1036.91 269.333 1039.24 267.117 1042.31 265.55C1045.41 263.983 1048.91 263.2 1052.81 263.2C1057.41 263.2 1061.16 264.15 1064.06 266.05C1066.96 267.95 1069.09 270.633 1070.46 274.1C1071.82 277.533 1072.51 281.567 1072.51 286.2V314H1060.11V287.1C1060.11 282.433 1059.37 278.983 1057.91 276.75C1056.47 274.517 1054.07 273.4 1050.71 273.4C1049.04 273.4 1047.57 273.7 1046.31 274.3C1045.07 274.867 1044.04 275.717 1043.21 276.85C1042.41 277.95 1041.81 279.3 1041.41 280.9C1041.01 282.467 1040.81 284.233 1040.81 286.2V314H1028.41V287.1C1028.41 284 1028.07 281.433 1027.41 279.4C1026.77 277.367 1025.74 275.867 1024.31 274.9C1022.91 273.9 1021.07 273.4 1018.81 273.4C1015.91 273.4 1013.52 274.083 1011.66 275.45C1009.82 276.783 1008.21 278.6 1006.81 280.9L1009.11 274.2V314H996.706ZM1094.42 315C1091.75 315 1089.32 314.417 1087.12 313.25C1084.92 312.05 1083.17 310.333 1081.87 308.1C1080.57 305.867 1079.92 303.167 1079.92 300C1079.92 297.167 1080.57 294.75 1081.87 292.75C1083.2 290.717 1084.94 289.033 1087.07 287.7C1089.24 286.333 1091.57 285.267 1094.07 284.5C1096.6 283.7 1099.09 283.117 1101.52 282.75C1103.99 282.383 1106.15 282.167 1108.02 282.1C1107.89 279.233 1107.15 277.15 1105.82 275.85C1104.49 274.55 1102.22 273.9 1099.02 273.9C1096.79 273.9 1094.6 274.217 1092.47 274.85C1090.37 275.45 1087.99 276.4 1085.32 277.7L1084.22 267.6C1087.22 266.133 1090.22 265.033 1093.22 264.3C1096.25 263.567 1099.32 263.2 1102.42 263.2C1106.15 263.2 1109.37 263.867 1112.07 265.2C1114.77 266.533 1116.85 268.683 1118.32 271.65C1119.79 274.583 1120.52 278.467 1120.52 283.3V296.8C1120.52 299.3 1120.64 301.117 1120.87 302.25C1121.1 303.35 1121.54 304.05 1122.17 304.35C1122.8 304.65 1123.72 304.8 1124.92 304.8H1126.52L1125.42 315H1120.92C1119.05 315 1117.39 314.75 1115.92 314.25C1114.49 313.783 1113.25 313.117 1112.22 312.25C1111.19 311.383 1110.35 310.367 1109.72 309.2C1108.09 311.033 1105.87 312.467 1103.07 313.5C1100.3 314.5 1097.42 315 1094.42 315ZM1099.62 305.5C1100.72 305.5 1102.09 305.217 1103.72 304.65C1105.35 304.05 1106.82 303.133 1108.12 301.9V290.5C1105.79 290.6 1103.45 290.983 1101.12 291.65C1098.79 292.317 1096.84 293.3 1095.27 294.6C1093.7 295.9 1092.92 297.533 1092.92 299.5C1092.92 301.533 1093.45 303.05 1094.52 304.05C1095.59 305.017 1097.29 305.5 1099.62 305.5ZM1133.43 314V264H1145.03L1145.33 269.3C1146.59 267.9 1148.38 266.5 1150.68 265.1C1152.98 263.7 1155.49 263 1158.23 263C1159.03 263 1159.76 263.067 1160.43 263.2L1159.53 275.4C1158.79 275.2 1158.06 275.067 1157.33 275C1156.63 274.933 1155.93 274.9 1155.23 274.9C1153.13 274.9 1151.21 275.383 1149.48 276.35C1147.74 277.317 1146.53 278.5 1145.83 279.9V314H1133.43ZM1182.73 315C1179.6 315 1177.05 314.367 1175.08 313.1C1173.12 311.8 1171.67 310.15 1170.73 308.15C1169.8 306.15 1169.33 304.067 1169.33 301.9V274.2H1162.23L1163.33 264H1169.33V253L1181.73 251.7V264H1192.73V274.2H1181.73V296.8C1181.73 299.333 1181.88 301.167 1182.18 302.3C1182.48 303.4 1183.17 304.1 1184.23 304.4C1185.3 304.667 1187 304.8 1189.33 304.8H1192.73L1191.63 315H1182.73ZM1201.63 314V244H1226.53C1231.9 244 1236.43 244.8 1240.13 246.4C1243.83 248 1246.63 250.467 1248.53 253.8C1250.47 257.133 1251.43 261.4 1251.43 266.6C1251.43 271.867 1250.48 276.217 1248.58 279.65C1246.68 283.05 1243.9 285.583 1240.23 287.25C1236.57 288.883 1232.1 289.7 1226.83 289.7H1214.43V314H1201.63ZM1214.43 279H1225.33C1229.7 279 1232.97 278.017 1235.13 276.05C1237.33 274.083 1238.43 271 1238.43 266.8C1238.43 262.6 1237.32 259.533 1235.08 257.6C1232.88 255.667 1229.53 254.7 1225.03 254.7H1214.43V279ZM1268.83 315C1266.17 315 1263.73 314.417 1261.53 313.25C1259.33 312.05 1257.58 310.333 1256.28 308.1C1254.98 305.867 1254.33 303.167 1254.33 300C1254.33 297.167 1254.98 294.75 1256.28 292.75C1257.62 290.717 1259.35 289.033 1261.48 287.7C1263.65 286.333 1265.98 285.267 1268.48 284.5C1271.02 283.7 1273.5 283.117 1275.93 282.75C1278.4 282.383 1280.57 282.167 1282.43 282.1C1282.3 279.233 1281.57 277.15 1280.23 275.85C1278.9 274.55 1276.63 273.9 1273.43 273.9C1271.2 273.9 1269.02 274.217 1266.88 274.85C1264.78 275.45 1262.4 276.4 1259.73 277.7L1258.63 267.6C1261.63 266.133 1264.63 265.033 1267.63 264.3C1270.67 263.567 1273.73 263.2 1276.83 263.2C1280.57 263.2 1283.78 263.867 1286.48 265.2C1289.18 266.533 1291.27 268.683 1292.73 271.65C1294.2 274.583 1294.93 278.467 1294.93 283.3V296.8C1294.93 299.3 1295.05 301.117 1295.28 302.25C1295.52 303.35 1295.95 304.05 1296.58 304.35C1297.22 304.65 1298.13 304.8 1299.33 304.8H1300.93L1299.83 315H1295.33C1293.47 315 1291.8 314.75 1290.33 314.25C1288.9 313.783 1287.67 313.117 1286.63 312.25C1285.6 311.383 1284.77 310.367 1284.13 309.2C1282.5 311.033 1280.28 312.467 1277.48 313.5C1274.72 314.5 1271.83 315 1268.83 315ZM1274.03 305.5C1275.13 305.5 1276.5 305.217 1278.13 304.65C1279.77 304.05 1281.23 303.133 1282.53 301.9V290.5C1280.2 290.6 1277.87 290.983 1275.53 291.65C1273.2 292.317 1271.25 293.3 1269.68 294.6C1268.12 295.9 1267.33 297.533 1267.33 299.5C1267.33 301.533 1267.87 303.05 1268.93 304.05C1270 305.017 1271.7 305.5 1274.03 305.5ZM1307.84 314V264H1319.44L1319.74 269.3C1321.01 267.9 1322.79 266.5 1325.09 265.1C1327.39 263.7 1329.91 263 1332.64 263C1333.44 263 1334.17 263.067 1334.84 263.2L1333.94 275.4C1333.21 275.2 1332.47 275.067 1331.74 275C1331.04 274.933 1330.34 274.9 1329.64 274.9C1327.54 274.9 1325.62 275.383 1323.89 276.35C1322.16 277.317 1320.94 278.5 1320.24 279.9V314H1307.84ZM1340.75 314V239H1353.15V284.5L1368.65 264H1382.65L1364.45 288L1383.05 314H1369.05L1353.15 291.8V314H1340.75Z" fill="#049996"/>
<path d="M408.7 314L389 244H402.3L416.3 293.7L431.9 244H440.8L457 292.4L470.4 244H483.7L463.2 314H451.9L436.3 267.3L420.8 314H408.7ZM510.283 315C504.249 315 499.216 313.8 495.183 311.4C491.183 308.967 488.183 305.767 486.183 301.8C484.183 297.8 483.183 293.433 483.183 288.7C483.183 284.133 484.116 279.917 485.983 276.05C487.883 272.183 490.649 269.083 494.283 266.75C497.916 264.383 502.349 263.2 507.583 263.2C512.383 263.2 516.383 264.183 519.583 266.15C522.783 268.117 525.183 270.75 526.783 274.05C528.383 277.317 529.183 280.933 529.183 284.9C529.183 286 529.116 287.117 528.983 288.25C528.849 289.35 528.649 290.5 528.383 291.7H496.083C496.549 294.8 497.516 297.317 498.983 299.25C500.483 301.15 502.299 302.55 504.433 303.45C506.599 304.35 508.916 304.8 511.383 304.8C514.283 304.8 516.983 304.433 519.483 303.7C521.983 302.933 524.283 301.933 526.383 300.7L526.983 311.2C525.083 312.2 522.716 313.083 519.883 313.85C517.049 314.617 513.849 315 510.283 315ZM496.383 283.3H516.583C516.583 281.8 516.299 280.3 515.733 278.8C515.166 277.267 514.216 275.983 512.883 274.95C511.583 273.917 509.816 273.4 507.583 273.4C504.383 273.4 501.866 274.333 500.033 276.2C498.199 278.067 496.983 280.433 496.383 283.3ZM550.448 315C547.481 315 545.048 314.417 543.148 313.25C541.281 312.05 539.898 310.467 538.998 308.5C538.098 306.5 537.648 304.3 537.648 301.9V239H550.048V296.8C550.048 299.467 550.198 301.367 550.498 302.5C550.831 303.6 551.431 304.267 552.298 304.5C553.164 304.7 554.414 304.8 556.048 304.8L554.948 315H550.448ZM586.629 315C580.896 315 576.079 313.833 572.179 311.5C568.312 309.133 565.379 306 563.379 302.1C561.412 298.167 560.429 293.833 560.429 289.1C560.429 284.333 561.412 279.983 563.379 276.05C565.346 272.083 568.296 268.917 572.229 266.55C576.162 264.183 581.096 263 587.029 263C589.829 263 592.362 263.317 594.629 263.95C596.896 264.55 598.829 265.3 600.429 266.2L599.429 276.2C597.896 275.4 596.162 274.733 594.229 274.2C592.329 273.667 590.329 273.4 588.229 273.4C583.429 273.4 579.712 274.85 577.079 277.75C574.446 280.65 573.129 284.433 573.129 289.1C573.129 293.533 574.479 297.267 577.179 300.3C579.879 303.3 583.529 304.8 588.129 304.8C590.096 304.8 592.029 304.517 593.929 303.95C595.862 303.35 597.729 302.533 599.529 301.5L600.629 312C598.896 312.9 596.796 313.617 594.329 314.15C591.896 314.717 589.329 315 586.629 315ZM631.246 315C625.813 315 621.179 313.817 617.346 311.45C613.513 309.083 610.579 305.933 608.546 302C606.546 298.067 605.546 293.767 605.546 289.1C605.546 284.4 606.546 280.067 608.546 276.1C610.579 272.133 613.513 268.967 617.346 266.6C621.179 264.2 625.813 263 631.246 263C636.679 263 641.313 264.2 645.146 266.6C648.979 268.967 651.896 272.133 653.896 276.1C655.929 280.067 656.946 284.4 656.946 289.1C656.946 293.767 655.929 298.067 653.896 302C651.896 305.933 648.979 309.083 645.146 311.45C641.313 313.817 636.679 315 631.246 315ZM631.246 304.8C635.413 304.8 638.613 303.35 640.846 300.45C643.113 297.517 644.246 293.733 644.246 289.1C644.246 284.4 643.113 280.583 640.846 277.65C638.613 274.683 635.413 273.2 631.246 273.2C627.113 273.2 623.913 274.683 621.646 277.65C619.379 280.583 618.246 284.4 618.246 289.1C618.246 293.733 619.379 297.517 621.646 300.45C623.913 303.35 627.113 304.8 631.246 304.8ZM665.577 314V264H676.177L676.977 271.3L675.177 269.1C677.077 267.6 679.344 266.25 681.977 265.05C684.644 263.817 687.744 263.2 691.277 263.2C693.944 263.2 696.294 263.6 698.327 264.4C700.394 265.167 702.161 266.283 703.627 267.75C705.094 269.183 706.277 270.9 707.177 272.9L704.177 272.2C705.777 269.333 708.111 267.117 711.177 265.55C714.277 263.983 717.777 263.2 721.677 263.2C726.277 263.2 730.027 264.15 732.927 266.05C735.827 267.95 737.961 270.633 739.327 274.1C740.694 277.533 741.377 281.567 741.377 286.2V314H728.977V287.1C728.977 282.433 728.244 278.983 726.777 276.75C725.344 274.517 722.944 273.4 719.577 273.4C717.911 273.4 716.444 273.7 715.177 274.3C713.944 274.867 712.911 275.717 712.077 276.85C711.277 277.95 710.677 279.3 710.277 280.9C709.877 282.467 709.677 284.233 709.677 286.2V314H697.277V287.1C697.277 284 696.944 281.433 696.277 279.4C695.644 277.367 694.611 275.867 693.177 274.9C691.777 273.9 689.944 273.4 687.677 273.4C684.777 273.4 682.394 274.083 680.527 275.45C678.694 276.783 677.077 278.6 675.677 280.9L677.977 274.2V314H665.577ZM776.591 315C770.558 315 765.525 313.8 761.491 311.4C757.491 308.967 754.491 305.767 752.491 301.8C750.491 297.8 749.491 293.433 749.491 288.7C749.491 284.133 750.425 279.917 752.291 276.05C754.191 272.183 756.958 269.083 760.591 266.75C764.225 264.383 768.658 263.2 773.891 263.2C778.691 263.2 782.691 264.183 785.891 266.15C789.091 268.117 791.491 270.75 793.091 274.05C794.691 277.317 795.491 280.933 795.491 284.9C795.491 286 795.425 287.117 795.291 288.25C795.158 289.35 794.958 290.5 794.691 291.7H762.391C762.858 294.8 763.825 297.317 765.291 299.25C766.791 301.15 768.608 302.55 770.741 303.45C772.908 304.35 775.225 304.8 777.691 304.8C780.591 304.8 783.291 304.433 785.791 303.7C788.291 302.933 790.591 301.933 792.691 300.7L793.291 311.2C791.391 312.2 789.025 313.083 786.191 313.85C783.358 314.617 780.158 315 776.591 315ZM762.691 283.3H782.891C782.891 281.8 782.608 280.3 782.041 278.8C781.475 277.267 780.525 275.983 779.191 274.95C777.891 273.917 776.125 273.4 773.891 273.4C770.691 273.4 768.175 274.333 766.341 276.2C764.508 278.067 763.291 280.433 762.691 283.3ZM842.717 315C839.584 315 837.034 314.367 835.067 313.1C833.101 311.8 831.651 310.15 830.717 308.15C829.784 306.15 829.317 304.067 829.317 301.9V274.2H822.217L823.317 264H829.317V253L841.717 251.7V264H852.717V274.2H841.717V296.8C841.717 299.333 841.867 301.167 842.167 302.3C842.467 303.4 843.151 304.1 844.217 304.4C845.284 304.667 846.984 304.8 849.317 304.8H852.717L851.617 315H842.717ZM883.492 315C878.059 315 873.426 313.817 869.592 311.45C865.759 309.083 862.826 305.933 860.792 302C858.792 298.067 857.792 293.767 857.792 289.1C857.792 284.4 858.792 280.067 860.792 276.1C862.826 272.133 865.759 268.967 869.592 266.6C873.426 264.2 878.059 263 883.492 263C888.926 263 893.559 264.2 897.392 266.6C901.226 268.967 904.142 272.133 906.142 276.1C908.176 280.067 909.192 284.4 909.192 289.1C909.192 293.767 908.176 298.067 906.142 302C904.142 305.933 901.226 309.083 897.392 311.45C893.559 313.817 888.926 315 883.492 315ZM883.492 304.8C887.659 304.8 890.859 303.35 893.092 300.45C895.359 297.517 896.492 293.733 896.492 289.1C896.492 284.4 895.359 280.583 893.092 277.65C890.859 274.683 887.659 273.2 883.492 273.2C879.359 273.2 876.159 274.683 873.892 277.65C871.626 280.583 870.492 284.4 870.492 289.1C870.492 293.733 871.626 297.517 873.892 300.45C876.159 303.35 879.359 304.8 883.492 304.8Z" fill="white"/>
</g>
<defs>
<linearGradient id="paint0_linear_28_28" x1="1379" y1="-87.5" x2="-111" y2="1488.5" gradientUnits="userSpaceOnUse">
<stop offset="0.382436" stop-color="#049996"/>
<stop offset="0.925077" stop-color="#049996" stop-opacity="0.54"/>
</linearGradient>
<linearGradient id="paint1_linear_28_28" x1="1425.5" y1="-415" x2="73.0001" y2="1430.5" gradientUnits="userSpaceOnUse">
<stop offset="0.463347" stop-color="#049996"/>
<stop offset="0.835683" stop-color="white"/>
</linearGradient>
<clipPath id="clip0_28_28">
<rect width="1728" height="1117" fill="white"/>
</clipPath>
</defs>
</svg>
